<svg xmlns="http://www.w3.org/2000/svg" viewBox="0 0 64 64" width="64" height="64">
  <defs>
    <linearGradient id="rainCloudGrad" x1="0%" y1="0%" x2="0%" y2="100%">
      <stop offset="0%" style="stop-color:#89ceff;stop-opacity:1" />
      <stop offset="100%" style="stop-color:#0ea5e9;stop-opacity:1" />
    </linearGradient>
  </defs>
  
  <!-- Cloud -->
  <path d="M 16 30 Q 12 30 12 26 Q 12 18 18 16 Q 20 10 26 10 Q 32 10 34 16 Q 40 14 44 20 Q 48 22 48 28 Q 48 34 42 34 L 18 34 Q 16 34 16 30 Z" fill="url(#rainCloudGrad)" stroke="#89ceff" stroke-width="0.5" opacity="0.95"/>
  
  <!-- Rain drops -->
  <circle cx="20" cy="42" r="2.5" fill="#ddb7ff" opacity="0.95"/>
  <circle cx="32" cy="46" r="2.5" fill="#ddb7ff" opacity="0.95"/>
  <circle cx="44" cy="42" r="2.5" fill="#ddb7ff" opacity="0.95"/>
  
  <!-- Rain lines -->
  <line x1="18" y1="36" x2="16" y2="42" stroke="#ddb7ff" stroke-width="1.5" opacity="0.7" stroke-linecap="round"/>
  <line x1="30" y1="36" x2="28" y2="44" stroke="#ddb7ff" stroke-width="1.5" opacity="0.7" stroke-linecap="round"/>
  <line x1="42" y1="36" x2="40" y2="42" stroke="#ddb7ff" stroke-width="1.5" opacity="0.7" stroke-linecap="round"/>
</svg>